<svg width="20" height="20" viewBox="0 0 20 20" fill="inherit" xmlns="http://www.w3.org/2000/svg">
<path fill="currentColor" d="M5.83341 4.16666V1.66666C5.83341 1.20643 6.20651 0.833328 6.66675 0.833328H13.3334C13.7937 0.833328 14.1667 1.20643 14.1667 1.66666V4.16666H17.5001C17.9603 4.16666 18.3334 4.53976 18.3334 4.99999V16.6667C18.3334 17.1269 17.9603 17.5 17.5001 17.5H2.50008C2.03985 17.5 1.66675 17.1269 1.66675 16.6667V4.99999C1.66675 4.53976 2.03985 4.16666 2.50008 4.16666H5.83341ZM12.5001 5.83333H7.50008V15.8333H12.5001V5.83333ZM5.83341 5.83333H3.33341V15.8333H5.83341V5.83333ZM14.1667 5.83333V15.8333H16.6667V5.83333H14.1667ZM7.50008 2.49999V4.16666H12.5001V2.49999H7.50008Z" fill="#525252"/>
</svg>
