<svg width="16" height="16" viewBox="0 0 16 16" fill="none" xmlns="http://www.w3.org/2000/svg">
<path fill="currentColor" d="M9.63325 12.6667L7.99992 15L6.36659 12.6667H1.99992C1.82311 12.6667 1.65354 12.5964 1.52851 12.4714C1.40349 12.3464 1.33325 12.1768 1.33325 12V2.66667C1.33325 2.48985 1.40349 2.32029 1.52851 2.19526C1.65354 2.07024 1.82311 2 1.99992 2H13.9999C14.1767 2 14.3463 2.07024 14.4713 2.19526C14.5963 2.32029 14.6666 2.48985 14.6666 2.66667V12C14.6666 12.1768 14.5963 12.3464 14.4713 12.4714C14.3463 12.5964 14.1767 12.6667 13.9999 12.6667H9.63325ZM8.93925 11.3333H13.3333V3.33333H2.66659V11.3333H7.06059L7.99992 12.6747L8.93925 11.3333Z" />
</svg>
