<svg width="16" height="16" viewBox="0 0 16 16" fill="none" xmlns="http://www.w3.org/2000/svg">
<path fill="currentColor" d="M11.0641 0.691105L15.2951 4.92217C15.4253 5.05235 15.4253 5.2634 15.2951 5.39358C15.2452 5.44351 15.1807 5.4763 15.1109 5.48721L14.1282 5.64085L10.357 1.86961L10.4984 0.879665C10.5245 0.697418 10.6933 0.570787 10.8755 0.596822C10.9469 0.607022 11.0131 0.640104 11.0641 0.691105ZM3.06317 13.432C5.54475 11.211 8.39319 10.5467 11.4919 9.75167L11.7895 7.07334L8.92452 4.20837L6.24616 4.50597C5.45108 7.60467 4.78684 10.4531 2.56583 12.9347L1.63599 12.0048C3.52161 9.80494 4.22871 7.36934 5.17152 3.28383L9.41419 2.81242L13.1855 6.58368L12.714 10.8263C8.62852 11.7691 6.1929 12.4762 3.99301 14.3618L3.06317 13.432ZM6.58573 9.41207C6.06503 8.89141 6.06503 8.04714 6.58573 7.52647C7.10645 7.00574 7.95065 7.00574 8.47132 7.52647C8.99205 8.04714 8.99205 8.89141 8.47132 9.41207C7.95065 9.93281 7.10645 9.93281 6.58573 9.41207Z" />
</svg>
